# xmcd
#
# Track frame offsets:
#	150
#	11875
#	35175
#	55481
#	79510
#	106848
#	124149
#	155803
#	181391
#	201035
#	215572
#	243729
#
# Disc length: 3632 seconds
#
# Revision: 0
# Processed by: cddbd v1.5.1PL0 Copyright (c) Steve Scherf et al.
# Submitted via: EasyCDDAExtractor 4.6.9.1
#
DISCID=af0e2e0c
DTITLE=Depeche Mode - Live London 20.11.1990 - CD1
DYEAR=1990
DGENRE=live
TTITLE0=Kaleid
TTITLE1=World In My Eyes
TTITLE2=Halo
TTITLE3=Shake The Disease
TTITLE4=Everything Counts
TTITLE5=Master And Servant
TTITLE6=Never Let Me Down Again
TTITLE7=Waiting For The Night
TTITLE8=Here Is The House
TTITLE9=Sweetest Perfection
TTITLE10=Clean
TTITLE11=Stripped
EXTD=
EXTT0=
EXTT1=
EXTT2=
EXTT3=
EXTT4=
EXTT5=
EXTT6=
EXTT7=
EXTT8=
EXTT9=
EXTT10=
EXTT11=
PLAYORDER=
